<?xml version="1.0" encoding="utf-8"?>
<!-- Generator: Adobe Illustrator 22.0.0, SVG Export Plug-In . SVG Version: 6.00 Build 0)  -->
<svg version="1.1" id="Calque_1" xmlns="http://www.w3.org/2000/svg" xmlns:xlink="http://www.w3.org/1999/xlink" x="0px" y="0px"
	 viewBox="0 0 432 432" style="enable-background:new 0 0 432 432;" xml:space="preserve">
<style type="text/css">
	.st0{fill:#066938;}
	.st1{fill:#9F1E29;}
	.st2{fill:#571419;}
	.st3{fill:none;}
	.st4{fill:#C68448;}
	.st5{fill:#8C633A;}
	.st6{fill:#D79A5D;}
	.st7{fill:#A5C0DF;}
	.st8{fill:#36502D;}
	.st9{fill:#C8261D;}
	.st10{fill:#808181;}
	.st11{fill:#519C37;}
	.st12{fill:#FCEE69;}
	.st13{fill:#EC8C37;}
	.st14{fill:#5877B1;}
	.st15{fill:#7B1523;}
	.st16{fill:#4F0D1C;}
	.st17{fill:#BF333D;}
	.st18{fill:#E7373D;}
	.st19{fill:#972021;}
	.st20{fill:#F2F2F2;}
	.st21{fill:#F3D4AA;}
	.st22{fill:#A67D52;}
	.st23{fill:#B59063;}
	.st24{fill:#020203;}
	.st25{fill:#FFFFFF;}
	.st26{fill:#E7E6E6;}
	.st27{fill:#9A9999;}
	.st28{fill:#B4B4B4;}
	.st29{fill:#C9913E;}
	.st30{fill:#D6A14D;}
	.st31{fill:#E2A1BC;}
	.st32{fill:#C1292E;}
	.st33{fill:#82171C;}
	.st34{fill:#CDCCCC;}
	.st35{fill:#D06C5D;}
	.st36{fill:#79986F;}
	.st37{fill:#DAA405;}
	.st38{fill:#EDCBA9;}
	.st39{fill:#405045;}
	.st40{fill:#8B2F2F;}
	.st41{fill:#1D2E1C;}
	.st42{fill:#D4BB78;}
	.st43{fill:#3C1014;}
	.st44{fill:#731633;}
	.st45{fill:#3F0D26;}
	.st46{fill:#E3EBF8;}
	.st47{fill:#D2DFEF;}
	.st48{fill:#B88E5C;}
	.st49{fill:#A81735;}
	.st50{fill:#4AA8A8;}
	.st51{fill:#94B947;}
	.st52{fill:#A8C4D3;}
	.st53{fill:#9F1A18;}
	.st54{fill:#4F6325;}
	.st55{fill:#BAC463;}
	.st56{fill:#8C694B;}
	.st57{fill:#8A9A66;}
	.st58{fill:#DDDDC3;}
	.st59{fill:#3F668A;}
	.st60{fill:#1B1B1B;}
	.st61{fill:#FFF0BA;}
	.st62{fill:#C69C6C;}
	.st63{fill:#603914;}
	.st64{fill:#114923;}
	.st65{fill:#961F27;}
	.st66{fill:#BB870E;}
	.st67{fill:#C51720;}
	.st68{fill:#449494;}
	.st69{fill:#417675;}
	.st70{fill:#ABCFAF;}
	.st71{fill:#66B2B0;}
	.st72{fill:#F9B03D;}
	.st73{fill:#754D24;}
	.st74{fill:#F6F6F6;}
	.st75{fill:#BA181A;}
	.st76{fill:#AD191C;}
	.st77{fill:#161515;}
	.st78{fill:#1E1E1C;}
	.st79{fill:#0E472B;}
	.st80{fill:#D3C29D;}
	.st81{fill:#CC2717;}
	.st82{fill:#A81916;}
	.st83{fill:#805129;}
	.st84{fill:#F39323;}
	.st85{fill:#B56B20;}
	.st86{fill:#E52629;}
	.st87{fill:#7B9EC7;}
	.st88{fill:#48515A;}
	.st89{fill:#DED3C6;}
	.st90{fill:#3B444E;}
	.st91{fill:#6189B1;}
	.st92{fill:#97B8D7;}
	.st93{fill:#715038;}
	.st94{fill:#A3282E;}
	.st95{fill:#110506;}
	.st96{fill:#F3E4D4;}
	.st97{fill:#F4DCC9;}
	.st98{fill:#676767;}
	.st99{fill:#E0EDF3;}
	.st100{fill:#90443F;}
	.st101{fill:#989389;}
	.st102{fill:#F0DABE;}
	.st103{fill:#4F382A;}
	.st104{fill:#009245;}
	.st105{fill:#064928;}
</style>
<g>
	<g>
		<g>
			<rect x="108.9" y="235.8" class="st5" width="213.2" height="55.9"/>
		</g>
		<g>
			<path class="st5" d="M177.4,304c1.4,10.1,0.9,10.5,3.1,10.6c67.5,3.1,59.2-3.9,59.2-12.7C220.4,303.5,209.4,303.6,177.4,304z"/>
		</g>
	</g>
	<g>
		<g>
			<g>
				<path class="st5" d="M171.6,324.5l-0.1,0.3c1.5,17,0.9,16.6,3.2,16.4c26.8-2.7,27.4-1.5,26.4-5.7
					C197.9,322.2,203.6,325,171.6,324.5z"/>
			</g>
			<g>
				<path class="st5" d="M320.3,318c-17.9,3-35.3,3.8-53.3,1.3l-0.7,3.8c0.9,19.6-9.3,14.2,53.9,9.8
					C322.6,332.8,322,332.8,320.3,318z"/>
			</g>
			<g>
				<path class="st5" d="M144.1,350.1v2c-1.7,17.7-4.3,14.1,47.3,9.5c-0.5-4-1-8-1.5-12C189.4,345.2,161.8,352.8,144.1,350.1z"/>
			</g>
			<g>
				<path class="st5" d="M262.7,345.3l0,4.7c-0.2,3,0.9,10.4,5,10.5c4,0.1,43.7,0.6,43.4-4.1c-0.8-12.8-0.7-12.4-0.9-12.7
					C309.6,343,282.8,342.9,262.7,345.3z"/>
			</g>
		</g>
		<g>
			<g>
				<path class="st73" d="M112.1,304.3c1.5,12.8,0.8,13.6,4.1,13.6c59.9,0.8,55.9,0.4,55.3-13.9
					C171.4,300.6,123.9,301.8,112.1,304.3z"/>
			</g>
			<g>
				<path class="st73" d="M250.6,311.2c0.7,0.6-3.2,0.5,73.3-2.2c2.9-15.9,3.1-5.2-74.3-7.5l-1.3,0.4
					C248.2,310.6,249.9,310.6,250.6,311.2z"/>
			</g>
			<g>
				<path class="st73" d="M113.8,325.8l-0.9,0.7c3.9,22.8,1.8,18.2,47.5,16.2c3.2-0.1,2.3-0.8,0.7-18
					C145.4,325,129.6,325.3,113.8,325.8z"/>
			</g>
			<g>
				<path class="st73" d="M208.8,323.9l-1,1.5c-0.2,4.2,0.2,8.4,1.3,12.4c15.8,1.9,31.7-3.9,47.7-3c1.3,0.1,1.9-0.3,1.6-2
					C255.9,318,262.5,320.6,208.8,323.9z"/>
			</g>
			<g>
				<path class="st73" d="M116,350.2l-1.5,1.6c3.8,16.4-1.6,16.8,24.1,14.1C137.9,347.7,140.9,350,116,350.2z"/>
			</g>
			<g>
				<path class="st73" d="M202.8,349.6l-1.1,2.7c0,4,0,8,0.1,12c54.5-3.3,51.1-1.7,51.1-6.6C252.8,346.9,260.4,346.5,202.8,349.6z"
					/>
			</g>
			<g>
				<path class="st73" d="M324.5,344.1c-2.6,0-5.3-0.1-7.9-0.1c-0.5,2.6-1.3,11.9,1.3,11.8C328.1,355.4,326.8,357.8,324.5,344.1z"/>
			</g>
		</g>
	</g>
	<g>
		<path class="st74" d="M330,231.3c-5.4-4.4-29,6.6-93.9,3.5c-39.2-1.8-125.8-2.6-125.9-2.6c-19.6,23.5-18.9,64.8,5,34.1
			c2.4-3,6-5.7,9.8-5c1,61,26.2,47.8,30.1,32.7c1.7-6.7,0.7-13.8,1.5-20.7c0.7-6.9,4-14.4,10.6-16.6c22,50.2,17.5-4.3,30.9-9.2
			c12.2-4.5,15.8,49,31.3,41.1c10.9-5.6,2.6-36.5,20.1-41.8c16.5-5,16.9,57.2,33.6,48.1c14.4-7.8,8.9-29.8,11.7-42.3
			c0.2-0.8,0.4-1.6,1.1-2c5.2-3.3,17,25.3,17.2,25.4c2.2,2.2,5.8,2,8.7,0.9C341.9,269.1,333.4,234.1,330,231.3z"/>
	</g>
	<g>
		<path class="st75" d="M304.9,124c-43.8-2.6-45.7-7.6-46.5-7.1c-3.7,2.4-4.8,72.2-5.2,74c-12.2-2.2-22.5,1-31.5,9.5
			c-15.3-10.2-20-12-32.7-6.1c-4.6-8.7-16.8-69.6-17.6-82.5c-14.5,5.1-30,13.9-44.9,17.6c12.3,27.3,15.9,71.1,21.8,100.4
			c-1,1.3-2,2.5-3,3.8l150.2,2.7c-1-5.9-3.6-11.5-7.3-16.1C296.4,188.8,294.4,154.7,304.9,124z"/>
	</g>
	<g>
		<g>
			<path class="st76" d="M292.8,167.9c1.4-11.1,2.4-22.2,3-33.4c-3.5-0.4-7-0.7-10.5-1.1c-1.3-0.1-2.8-0.4-3.2-1.6l0.1,1.1
				c-0.9,8.2-1.8,16.5-2.7,24.7c-0.3,3.1-0.7,6.1-1.2,9.2c-0.8,4.3-2.1,8.5-3,12.8c-3.3,16.2-0.8,33.3-5.4,49.2
				c6.8,1.3,13.7,2,20.7,2.2c-1.5-2.6-3.1-5.2-4.6-7.8c-0.9-1.5-1.7-3-2.3-4.6c-1.5-4.7,0.3-9.8,1.8-14.5
				C289.2,192.3,291.2,180.1,292.8,167.9z"/>
		</g>
		<g>
			<path class="st76" d="M161.2,166.8c-0.6-3-0.9-6.1-1.2-9.2c-0.9-8.2-1.8-16.5-2.7-24.7l0.1-1.1c-0.4,1.2-2,1.5-3.2,1.6
				c-3.5,0.4-7,0.7-10.5,1.1c0.6,11.2,1.6,22.3,3,33.4c1.5,12.2,3.5,24.3,7.2,36c1.5,4.7,3.3,9.8,1.8,14.5c-0.5,1.6-1.4,3.1-2.3,4.6
				c-1.5,2.6-3.1,5.2-4.6,7.8c6.9-0.2,13.8-0.9,20.7-2.2c-4.7-15.9-2.1-33-5.4-49.2C163.3,175.3,162,171.1,161.2,166.8z"/>
		</g>
	</g>
	<g>
		<g>
			<path class="st77" d="M326.2,79.7c-2.8-1.9-6.2-2.7-9.6-3.3c-10.3-1.9-20.7-2.9-31.2-3.2c1.3-2.3,0.2-5.5-2-7
				c-2.2-1.5-5.1-1.6-7.7-1c-11.7,3-7.8,11.3-9.2,39.7c-4.8,6.3,28.9,6.5,36.9,6.9c-1.5-3.7,2.4-7.6,6.4-8.4c4-0.8,8.1,0.2,12-0.7
				c4.8-1.1,8.7-5.3,9.6-10.1C332.4,87.7,330.2,82.4,326.2,79.7z M320,96.6c8-0.8,3.9-9.2,6.8-11.6l0.6,0.1
				C331.5,88.1,328,98.2,320,96.6z"/>
		</g>
		<g>
			<path class="st77" d="M167.5,107.5c-1.5-30.5,2-33.5-9-36.3c-2.6-0.7-5.5-0.6-7.7,1c-2.2,1.5-3.3,4.7-2,7
				c-10.5,0.3-20.9,1.4-31.2,3.2c-3.3,0.6-6.8,1.3-9.6,3.3c-4.1,2.8-6.2,8.1-5.3,12.9c0.9,4.8,4.8,9,9.6,10.1c3.9,0.9,8.1,0,12,0.7
				c4,0.8,7.9,4.7,6.4,8.4c8-0.5,41.8-2.3,36.9-8.6L167.5,107.5z M109.6,92.2l0.6-0.1c2.9,2.5-1.2,10.9,6.8,11.6
				C109.1,105.4,105.6,95.2,109.6,92.2z"/>
		</g>
	</g>
	<g>
		<g>
			<path class="st74" d="M307.8,112.3c-2.8-4.3-6.5-9.1-11.6-7.4c-9.3,3.1-3.4-7.5-14.3-4.3c-5.6,1.7-13.2-3.7-17.7,1l0.1,0.4
				c-18.3-3.3-16.9,11.4-10.2,11.3c-4.1,1.3-5.3,12.7,12.1,6.4c-0.4,5.5,7,13.4,20.2,5.7c2.2,8.1,13.4,9.2,17.2,1.8
				c2.2,3,9.2,3.3,11.9-5.6C318.4,111.7,310.4,109.3,307.8,112.3z"/>
		</g>
		<g>
			<path class="st74" d="M173.7,112.2c-10.8-8.3-13.1-2.5-15.6-1.5c-3.2,1.3-6-3.8-9.3-3.1c-3.3,0.7-0.4,2.9-12.2,4.7
				c-3,0.5-6.3,1.7-7.6,4.4l0.2,0.3c-18,3-12.3,16.5-5.8,14.1c-3.5,2.6-0.4,13.6,13.6,2c1.5,5.3,11.1,10.3,20.9-1.5
				c4.8,6.9,15.7,4.2,16.8-4.1c3.1,2.1,9.8,0.1,9.3-9.3C183.8,115.5,175.1,108.4,173.7,112.2z"/>
		</g>
	</g>
	<g>
		<path class="st78" d="M324.7,178.2c-8.2,9.1-16.3,18.1-24.5,27.2c-2.4,2.6,1.5,6.5,3.9,3.9c8.2-9.1,16.3-18.1,24.5-27.2
			C331,179.5,327.1,175.6,324.7,178.2z"/>
		<path class="st78" d="M331.5,202.7c-6.6,3.1-13.2,6.3-19.7,9.4c-3.2,1.5-0.4,6.3,2.8,4.7c6.6-3.1,13.2-6.3,19.7-9.4
			C337.5,205.9,334.7,201.2,331.5,202.7z"/>
	</g>
</g>
</svg>
